<svg width="258" height="40" viewBox="0 0 258 40" fill="none" xmlns="http://www.w3.org/2000/svg">
<path d="M0.838075 31.1425L11.0393 8.473H15.1846L25.4182 31.1425H21.0139L12.2376 10.7076H13.9216L5.17766 31.1425H0.838075ZM5.53389 25.8961L6.66736 22.5928H18.9089L20.0423 25.8961H5.53389ZM35.5917 37.6518C33.994 37.6518 32.4287 37.4359 30.8958 37.0041C29.3846 36.5939 28.1431 35.9894 27.1716 35.1906L28.9851 32.1464C29.7408 32.7725 30.6907 33.2691 31.835 33.6361C33.0009 34.0247 34.1775 34.219 35.365 34.219C37.2649 34.219 38.6574 33.7764 39.5426 32.8912C40.4278 32.0276 40.8704 30.7215 40.8704 28.9727V25.8961L41.1943 21.9775L41.0647 18.0589V13.8489H44.9185V28.5193C44.9185 31.6498 44.1197 33.9492 42.522 35.4173C40.9244 36.907 38.6143 37.6518 35.5917 37.6518ZM35.0735 30.3652C33.4327 30.3652 31.943 30.0198 30.6044 29.3289C29.2874 28.6164 28.2403 27.6341 27.463 26.3819C26.7074 25.1297 26.3296 23.6615 26.3296 21.9775C26.3296 20.3151 26.7074 18.8578 27.463 17.6056C28.2403 16.3533 29.2874 15.3818 30.6044 14.6909C31.943 14 33.4327 13.6546 35.0735 13.6546C36.5416 13.6546 37.8586 13.9461 39.0245 14.529C40.1903 15.1119 41.1187 16.0187 41.8096 17.2493C42.522 18.4799 42.8783 20.056 42.8783 21.9775C42.8783 23.899 42.522 25.4859 41.8096 26.7381C41.1187 27.9687 40.1903 28.8863 39.0245 29.4908C37.8586 30.0738 36.5416 30.3652 35.0735 30.3652ZM35.6888 26.9324C36.7035 26.9324 37.6103 26.7273 38.4092 26.3171C39.208 25.8853 39.8233 25.3024 40.2551 24.5683C40.7085 23.8127 40.9352 22.9491 40.9352 21.9775C40.9352 21.006 40.7085 20.1532 40.2551 19.4191C39.8233 18.6635 39.208 18.0913 38.4092 17.7027C37.6103 17.2925 36.7035 17.0874 35.6888 17.0874C34.6741 17.0874 33.7565 17.2925 32.9361 17.7027C32.1373 18.0913 31.5112 18.6635 31.0578 19.4191C30.626 20.1532 30.4101 21.006 30.4101 21.9775C30.4101 22.9491 30.626 23.8127 31.0578 24.5683C31.5112 25.3024 32.1373 25.8853 32.9361 26.3171C33.7565 26.7273 34.6741 26.9324 35.6888 26.9324ZM50.2405 31.1425V13.8489H54.0943V18.6095L53.641 17.2169C54.1591 16.0511 54.9687 15.1659 56.0698 14.5614C57.1925 13.9569 58.5851 13.6546 60.2475 13.6546V17.5084C60.0748 17.4652 59.9128 17.4436 59.7617 17.4436C59.6106 17.422 59.4594 17.4112 59.3083 17.4112C57.7754 17.4112 56.5556 17.8646 55.6488 18.7714C54.742 19.6566 54.2887 20.9844 54.2887 22.7548V31.1425H50.2405ZM63.6815 31.1425V13.8489H67.7297V31.1425H63.6815ZM65.7218 10.999C64.9661 10.999 64.34 10.7615 63.8435 10.2866C63.3685 9.81158 63.131 9.23945 63.131 8.57016C63.131 7.87928 63.3685 7.30714 63.8435 6.85375C64.34 6.37878 64.9661 6.14129 65.7218 6.14129C66.4774 6.14129 67.0928 6.36798 67.5677 6.82137C68.0643 7.25317 68.3126 7.80371 68.3126 8.473C68.3126 9.18547 68.0751 9.78999 67.6001 10.2866C67.1251 10.7615 66.499 10.999 65.7218 10.999ZM92.6476 31.1425V27.6449L92.4209 26.9V20.7793C92.4209 19.5918 92.0647 18.6743 91.3522 18.0266C90.6397 17.3573 89.5602 17.0226 88.1137 17.0226C87.1421 17.0226 86.1814 17.1738 85.2314 17.476C84.3031 17.7783 83.515 18.1993 82.8673 18.739L81.2805 15.792C82.2088 15.0795 83.3099 14.5506 84.5837 14.2051C85.8791 13.8381 87.2177 13.6546 88.5995 13.6546C91.1039 13.6546 93.0362 14.2591 94.3964 15.4681C95.7781 16.6556 96.469 18.5015 96.469 21.006V31.1425H92.6476ZM87.2069 31.3692C85.9115 31.3692 84.778 31.1533 83.8065 30.7215C82.835 30.2681 82.0793 29.6527 81.5396 28.8755C81.0214 28.0767 80.7623 27.1807 80.7623 26.1876C80.7623 25.216 80.989 24.3416 81.4424 23.5644C81.9174 22.7871 82.6838 22.1718 83.7417 21.7184C84.7996 21.2651 86.203 21.0384 87.9518 21.0384H92.9714V23.7263H88.2432C86.8615 23.7263 85.9331 23.953 85.4581 24.4064C84.9832 24.8382 84.7457 25.3779 84.7457 26.0256C84.7457 26.7597 85.0371 27.3426 85.6201 27.7744C86.203 28.2062 87.0126 28.4221 88.0489 28.4221C89.0421 28.4221 89.9273 28.1954 90.7045 27.742C91.5033 27.2886 92.0755 26.6194 92.4209 25.7342L93.101 28.163C92.7124 29.1778 92.0107 29.9658 90.996 30.5271C90.0028 31.0885 88.7398 31.3692 87.2069 31.3692ZM111.477 13.6546C112.859 13.6546 114.089 13.9245 115.169 14.4642C116.27 15.004 117.133 15.8352 117.76 16.9579C118.386 18.0589 118.699 19.4839 118.699 21.2327V31.1425H114.651V21.7508C114.651 20.2179 114.284 19.0737 113.55 18.318C112.837 17.5624 111.833 17.1845 110.538 17.1845C109.588 17.1845 108.746 17.3789 108.012 17.7675C107.278 18.1561 106.706 18.739 106.295 19.5163C105.907 20.2719 105.712 21.2327 105.712 22.3985V31.1425H101.664V13.8489H105.518V18.5123L104.838 17.0874C105.443 15.9863 106.317 15.1443 107.461 14.5614C108.627 13.9569 109.966 13.6546 111.477 13.6546ZM134.489 31.1425V27.6449L134.262 26.9V20.7793C134.262 19.5918 133.906 18.6743 133.193 18.0266C132.481 17.3573 131.401 17.0226 129.955 17.0226C128.983 17.0226 128.022 17.1738 127.073 17.476C126.144 17.7783 125.356 18.1993 124.708 18.739L123.122 15.792C124.05 15.0795 125.151 14.5506 126.425 14.2051C127.72 13.8381 129.059 13.6546 130.441 13.6546C132.945 13.6546 134.877 14.2591 136.237 15.4681C137.619 16.6556 138.31 18.5015 138.31 21.006V31.1425H134.489ZM129.048 31.3692C127.753 31.3692 126.619 31.1533 125.648 30.7215C124.676 30.2681 123.92 29.6527 123.381 28.8755C122.862 28.0767 122.603 27.1807 122.603 26.1876C122.603 25.216 122.83 24.3416 123.283 23.5644C123.758 22.7871 124.525 22.1718 125.583 21.7184C126.641 21.2651 128.044 21.0384 129.793 21.0384H134.813V23.7263H130.084C128.703 23.7263 127.774 23.953 127.299 24.4064C126.824 24.8382 126.587 25.3779 126.587 26.0256C126.587 26.7597 126.878 27.3426 127.461 27.7744C128.044 28.2062 128.854 28.4221 129.89 28.4221C130.883 28.4221 131.768 28.1954 132.546 27.742C133.344 27.2886 133.917 26.6194 134.262 25.7342L134.942 28.163C134.553 29.1778 133.852 29.9658 132.837 30.5271C131.844 31.0885 130.581 31.3692 129.048 31.3692ZM143.505 31.1425V7.11283H147.553V31.1425H143.505ZM154.292 37.6518C153.45 37.6518 152.608 37.5115 151.766 37.2308C150.924 36.9502 150.222 36.5615 149.661 36.065L151.28 33.0856C151.69 33.4526 152.154 33.744 152.672 33.9599C153.19 34.1758 153.719 34.2838 154.259 34.2838C154.993 34.2838 155.587 34.1003 156.04 33.7333C156.494 33.3662 156.915 32.7509 157.303 31.8873L158.307 29.6204L158.631 29.1346L165.173 13.8489H169.059L160.963 32.535C160.423 33.8304 159.819 34.8559 159.149 35.6116C158.502 36.3672 157.768 36.8962 156.947 37.1984C156.148 37.5007 155.263 37.6518 154.292 37.6518ZM157.854 31.7578L150.049 13.8489H154.259L160.607 28.7784L157.854 31.7578ZM176.711 31.3692C175.265 31.3692 173.872 31.1856 172.534 30.8186C171.217 30.43 170.17 29.9658 169.392 29.4261L170.947 26.3495C171.724 26.8461 172.652 27.2563 173.732 27.5801C174.811 27.904 175.891 28.0659 176.97 28.0659C178.244 28.0659 179.162 27.8932 179.723 27.5477C180.306 27.2023 180.597 26.7381 180.597 26.1552C180.597 25.6802 180.403 25.324 180.015 25.0865C179.626 24.8274 179.119 24.6331 178.492 24.5035C177.866 24.374 177.165 24.2553 176.387 24.1473C175.632 24.0394 174.865 23.899 174.088 23.7263C173.332 23.532 172.642 23.2621 172.015 22.9167C171.389 22.5497 170.882 22.0639 170.493 21.4594C170.105 20.8548 169.91 20.056 169.91 19.0629C169.91 17.9618 170.224 17.0118 170.85 16.213C171.476 15.3926 172.35 14.7665 173.473 14.3347C174.617 13.8813 175.966 13.6546 177.521 13.6546C178.687 13.6546 179.863 13.7841 181.051 14.0432C182.238 14.3023 183.221 14.6693 183.998 15.1443L182.443 18.2209C181.623 17.7243 180.792 17.3897 179.95 17.2169C179.129 17.0226 178.309 16.9255 177.489 16.9255C176.258 16.9255 175.34 17.109 174.736 17.476C174.153 17.843 173.861 18.3072 173.861 18.8686C173.861 19.3867 174.056 19.7753 174.444 20.0344C174.833 20.2935 175.34 20.4986 175.966 20.6497C176.593 20.8009 177.283 20.9304 178.039 21.0384C178.816 21.1247 179.583 21.2651 180.338 21.4594C181.094 21.6537 181.785 21.9235 182.411 22.269C183.059 22.5928 183.577 23.057 183.966 23.6615C184.354 24.2661 184.548 25.0541 184.548 26.0256C184.548 27.1051 184.225 28.0443 183.577 28.8431C182.951 29.642 182.055 30.2681 180.889 30.7215C179.723 31.1533 178.331 31.3692 176.711 31.3692ZM188.035 31.1425V13.8489H192.083V31.1425H188.035ZM190.075 10.999C189.319 10.999 188.693 10.7615 188.197 10.2866C187.722 9.81158 187.484 9.23945 187.484 8.57016C187.484 7.87928 187.722 7.30714 188.197 6.85375C188.693 6.37878 189.319 6.14129 190.075 6.14129C190.831 6.14129 191.446 6.36798 191.921 6.82137C192.417 7.25317 192.666 7.80371 192.666 8.473C192.666 9.18547 192.428 9.78999 191.953 10.2866C191.478 10.7615 190.852 10.999 190.075 10.999ZM202.739 31.3692C201.293 31.3692 199.9 31.1856 198.562 30.8186C197.245 30.43 196.198 29.9658 195.42 29.4261L196.975 26.3495C197.752 26.8461 198.68 27.2563 199.76 27.5801C200.839 27.904 201.919 28.0659 202.998 28.0659C204.272 28.0659 205.19 27.8932 205.751 27.5477C206.334 27.2023 206.626 26.7381 206.626 26.1552C206.626 25.6802 206.431 25.324 206.043 25.0865C205.654 24.8274 205.147 24.6331 204.521 24.5035C203.894 24.374 203.193 24.2553 202.416 24.1473C201.66 24.0394 200.893 23.899 200.116 23.7263C199.361 23.532 198.67 23.2621 198.044 22.9167C197.417 22.5497 196.91 22.0639 196.521 21.4594C196.133 20.8548 195.939 20.056 195.939 19.0629C195.939 17.9618 196.252 17.0118 196.878 16.213C197.504 15.3926 198.378 14.7665 199.501 14.3347C200.645 13.8813 201.995 13.6546 203.549 13.6546C204.715 13.6546 205.892 13.7841 207.079 14.0432C208.266 14.3023 209.249 14.6693 210.026 15.1443L208.472 18.2209C207.651 17.7243 206.82 17.3897 205.978 17.2169C205.157 17.0226 204.337 16.9255 203.517 16.9255C202.286 16.9255 201.368 17.109 200.764 17.476C200.181 17.843 199.89 18.3072 199.89 18.8686C199.89 19.3867 200.084 19.7753 200.472 20.0344C200.861 20.2935 201.368 20.4986 201.995 20.6497C202.621 20.8009 203.312 20.9304 204.067 21.0384C204.844 21.1247 205.611 21.2651 206.367 21.4594C207.122 21.6537 207.813 21.9235 208.439 22.269C209.087 22.5928 209.605 23.057 209.994 23.6615C210.382 24.2661 210.577 25.0541 210.577 26.0256C210.577 27.1051 210.253 28.0443 209.605 28.8431C208.979 29.642 208.083 30.2681 206.917 30.7215C205.751 31.1533 204.359 31.3692 202.739 31.3692Z" fill="#3B4C0E"/>
<path d="M232.438 20.2608H233.245V31.3349H232.438V20.2608ZM225.034 31.3349H224.227V20.2608H225.034V31.3349ZM232.533 26.0668H224.939V25.3549H232.533V26.0668ZM240.213 31.3982C239.506 31.3982 238.894 31.2716 238.378 31.0185C237.861 30.7549 237.46 30.3646 237.175 29.8478C236.901 29.3205 236.764 28.6719 236.764 27.9019V23.0768H237.555V27.8387C237.555 28.7668 237.792 29.4734 238.267 29.9586C238.741 30.4437 239.411 30.6863 240.276 30.6863C240.898 30.6863 241.436 30.5545 241.89 30.2908C242.343 30.0271 242.691 29.658 242.934 29.1834C243.176 28.6982 243.298 28.1287 243.298 27.4748V23.0768H244.089V31.3349H243.329V29.041L243.44 29.3099C243.197 29.9533 242.791 30.4648 242.222 30.8445C241.663 31.2136 240.993 31.3982 240.213 31.3982ZM251.587 31.3982C250.859 31.3982 250.2 31.2295 249.609 30.892C249.029 30.5545 248.565 30.0693 248.217 29.4365C247.879 28.8037 247.711 28.0601 247.711 27.2059C247.711 26.3305 247.879 25.5816 248.217 24.9594C248.565 24.3371 249.029 23.8572 249.609 23.5197C250.2 23.1822 250.859 23.0135 251.587 23.0135C252.367 23.0135 253.063 23.1928 253.675 23.5514C254.297 23.8994 254.782 24.3899 255.13 25.0227C255.489 25.6449 255.668 26.3727 255.668 27.2059C255.668 28.0285 255.489 28.7562 255.13 29.389C254.782 30.0219 254.297 30.5176 253.675 30.8761C253.063 31.2242 252.367 31.3982 251.587 31.3982ZM247.442 31.3349V19.5963H248.233V25.7504L248.075 27.19L248.201 28.6297V31.3349H247.442ZM251.539 30.6863C252.172 30.6863 252.741 30.5439 253.248 30.2592C253.754 29.9638 254.149 29.5525 254.434 29.0252C254.73 28.4978 254.877 27.8914 254.877 27.2059C254.877 26.5098 254.73 25.9033 254.434 25.3865C254.149 24.8592 253.754 24.4531 253.248 24.1684C252.741 23.8731 252.172 23.7254 251.539 23.7254C250.906 23.7254 250.337 23.8731 249.831 24.1684C249.335 24.4531 248.939 24.8592 248.644 25.3865C248.359 25.9033 248.217 26.5098 248.217 27.2059C248.217 27.8914 248.359 28.4978 248.644 29.0252C248.939 29.5525 249.335 29.9638 249.831 30.2592C250.337 30.5439 250.906 30.6863 251.539 30.6863Z" fill="#3B4C0E"/>
</svg>
