<svg width="33" height="33" viewBox="0 0 33 33" fill="none" xmlns="http://www.w3.org/2000/svg">
<rect x="1.11978" y="0.8483" width="30.682" height="30.682" rx="15.341" stroke="#2C7BDF" stroke-width="1.42707"/>
<path d="M20.9204 9.05434H20.7563C20.573 8.53408 20.2332 8.0833 19.7835 7.7639C19.3338 7.4445 18.7962 7.27215 18.2446 7.27051H14.677C14.1254 7.27215 13.5878 7.4445 13.1381 7.7639C12.6884 8.0833 12.3486 8.53408 12.1653 9.05434H12.0012C10.526 9.05434 9.32544 10.2549 9.32544 11.7301V22.4331C9.32544 23.9084 10.526 25.1089 12.0012 25.1089H20.9204C22.3956 25.1089 23.5961 23.9084 23.5961 22.4331V11.7301C23.5961 10.2549 22.3956 9.05434 20.9204 9.05434ZM14.677 9.05434H18.2446C18.4812 9.05434 18.708 9.14831 18.8753 9.31558C19.0426 9.48285 19.1365 9.70971 19.1365 9.94626C19.1365 10.1828 19.0426 10.4097 18.8753 10.5769C18.708 10.7442 18.4812 10.8382 18.2446 10.8382H14.677C14.4404 10.8382 14.2135 10.7442 14.0463 10.5769C13.879 10.4097 13.785 10.1828 13.785 9.94626C13.785 9.70971 13.879 9.48285 14.0463 9.31558C14.2135 9.14831 14.4404 9.05434 14.677 9.05434ZM21.8123 22.4331C21.8123 22.6697 21.7183 22.8965 21.5511 23.0638C21.3838 23.2311 21.1569 23.325 20.9204 23.325H12.0012C11.7646 23.325 11.5378 23.2311 11.3705 23.0638C11.2032 22.8965 11.1093 22.6697 11.1093 22.4331V11.7301C11.1093 11.4935 11.2032 11.2667 11.3705 11.0994C11.5378 10.9322 11.7646 10.8382 12.0012 10.8382H12.1653C12.3486 11.3584 12.6884 11.8092 13.1381 12.1286C13.5878 12.448 14.1254 12.6204 14.677 12.622H18.2446C18.7962 12.6204 19.3338 12.448 19.7835 12.1286C20.2332 11.8092 20.573 11.3584 20.7563 10.8382H20.9204C21.1569 10.8382 21.3838 10.9322 21.5511 11.0994C21.7183 11.2667 21.8123 11.4935 21.8123 11.7301V22.4331ZM19.1365 15.7437V16.6357C19.1365 16.7539 19.0896 16.8674 19.0059 16.951C18.9223 17.0346 18.8089 17.0816 18.6906 17.0816H17.3527V18.4195C17.3527 18.5378 17.3057 18.6512 17.2221 18.7348C17.1385 18.8185 17.025 18.8654 16.9067 18.8654H16.0148C15.8966 18.8654 15.7831 18.8185 15.6995 18.7348C15.6159 18.6512 15.5689 18.5378 15.5689 18.4195V17.0816H14.231C14.1127 17.0816 13.9993 17.0346 13.9157 16.951C13.832 16.8674 13.785 16.7539 13.785 16.6357V15.7437C13.785 15.6255 13.832 15.512 13.9157 15.4284C13.9993 15.3448 14.1127 15.2978 14.231 15.2978H15.5689V13.9599C15.5689 13.8416 15.6159 13.7282 15.6995 13.6446C15.7831 13.5609 15.8966 13.5139 16.0148 13.5139H16.9067C17.025 13.5139 17.1385 13.5609 17.2221 13.6446C17.3057 13.7282 17.3527 13.8416 17.3527 13.9599V15.2978H18.6906C18.8089 15.2978 18.9223 15.3448 19.0059 15.4284C19.0896 15.512 19.1365 15.6255 19.1365 15.7437ZM18.6906 19.7574H14.231C14.1127 19.7574 13.9993 19.8044 13.9157 19.888C13.832 19.9716 13.785 20.0851 13.785 20.2033V21.0952C13.785 21.2135 13.832 21.327 13.9157 21.4106C13.9993 21.4942 14.1127 21.5412 14.231 21.5412H18.6906C18.8089 21.5412 18.9223 21.4942 19.0059 21.4106C19.0896 21.327 19.1365 21.2135 19.1365 21.0952V20.2033C19.1365 20.0851 19.0896 19.9716 19.0059 19.888C18.9223 19.8044 18.8089 19.7574 18.6906 19.7574Z" fill="#2C7BDF"/>
</svg>
