<svg width="33" height="33" viewBox="0 0 33 33" fill="none" xmlns="http://www.w3.org/2000/svg">
<rect x="1.44596" y="0.849277" width="30.682" height="30.682" rx="15.341" stroke="#F8B84E" stroke-width="1.42707"/>
<path fill-rule="evenodd" clip-rule="evenodd" d="M13.6014 7.27148C13.9533 7.27148 14.2385 7.55672 14.2385 7.90857V8.54565H17.4239C17.7758 8.54565 18.061 8.83089 18.061 9.18274C18.061 9.53459 17.7758 9.81982 17.4239 9.81982H14.2385V10.4569C14.2385 10.8088 13.9533 11.094 13.6014 11.094C13.2496 11.094 12.9644 10.8088 12.9644 10.4569V9.81982H11.6902C10.2828 9.81982 9.14185 10.9608 9.14185 12.3682V21.2873C9.14185 22.6947 10.2828 23.8357 11.6902 23.8357H14.8756C15.2275 23.8357 15.5127 24.1209 15.5127 24.4728C15.5127 24.8246 15.2275 25.1099 14.8756 25.1099H11.6902C9.57907 25.1099 7.86768 23.3985 7.86768 21.2873V12.3682C7.86768 10.257 9.57907 8.54565 11.6902 8.54565H12.9644V7.90857C12.9644 7.55672 13.2496 7.27148 13.6014 7.27148ZM19.9723 7.27148C20.3241 7.27148 20.6094 7.55672 20.6094 7.90857V8.54565H21.8835C23.9946 8.54565 25.706 10.257 25.706 12.3682V13.6423C25.706 13.9942 25.4208 14.2794 25.069 14.2794C24.7171 14.2794 24.4319 13.9942 24.4319 13.6423V12.3682C24.4319 10.9608 23.2909 9.81982 21.8835 9.81982H20.6094V10.4569C20.6094 10.8088 20.3241 11.094 19.9723 11.094C19.6204 11.094 19.3352 10.8088 19.3352 10.4569V7.90857C19.3352 7.55672 19.6204 7.27148 19.9723 7.27148ZM11.6902 13.0052C11.3383 13.0052 11.0531 13.2905 11.0531 13.6423C11.0531 13.9942 11.3383 14.2794 11.6902 14.2794H21.8835C22.2354 14.2794 22.5206 13.9942 22.5206 13.6423C22.5206 13.2905 22.2354 13.0052 21.8835 13.0052H11.6902ZM25.1215 20.6591C25.4685 20.7173 25.7026 21.0458 25.6444 21.3928C25.2905 23.5024 23.4568 25.1099 21.2465 25.1099C20.2987 25.1099 19.4203 24.8141 18.6981 24.3104V24.4728C18.6981 24.8246 18.4129 25.1099 18.061 25.1099C17.7092 25.1099 17.4239 24.8246 17.4239 24.4728V22.5615C17.4239 22.2097 17.7092 21.9244 18.061 21.9244H19.9723C20.3241 21.9244 20.6094 22.2097 20.6094 22.5615C20.6094 22.9134 20.3241 23.1986 19.9723 23.1986H19.3347C19.8675 23.5989 20.5294 23.8357 21.2465 23.8357C22.8242 23.8357 24.1351 22.688 24.3878 21.1819C24.446 20.835 24.7745 20.6008 25.1215 20.6591ZM18.1051 20.1186C18.3577 18.6125 19.6687 17.4648 21.2465 17.4648C21.9635 17.4648 22.6254 17.7016 23.1582 18.1019H22.5206C22.1688 18.1019 21.8835 18.3871 21.8835 18.739C21.8835 19.0909 22.1688 19.3761 22.5206 19.3761H24.4319C24.7837 19.3761 25.069 19.0909 25.069 18.739V16.8278C25.069 16.4759 24.7837 16.1907 24.4319 16.1907C24.08 16.1907 23.7948 16.4759 23.7948 16.8278V16.9901C23.0727 16.4865 22.1941 16.1907 21.2465 16.1907C19.0361 16.1907 17.2024 17.7981 16.8485 19.9077C16.7902 20.2548 17.0244 20.5832 17.3714 20.6415C17.7183 20.6997 18.0469 20.4656 18.1051 20.1186ZM12.0087 18.1019C12.5365 18.1019 12.9644 17.6741 12.9644 17.1463C12.9644 16.6185 12.5365 16.1907 12.0087 16.1907C11.4809 16.1907 11.0531 16.6185 11.0531 17.1463C11.0531 17.6741 11.4809 18.1019 12.0087 18.1019ZM12.9644 20.9688C12.9644 21.4966 12.5365 21.9244 12.0087 21.9244C11.4809 21.9244 11.0531 21.4966 11.0531 20.9688C11.0531 20.441 11.4809 20.0132 12.0087 20.0132C12.5365 20.0132 12.9644 20.441 12.9644 20.9688Z" fill="#F8B84E"/>
</svg>
