<svg width="33" height="33" viewBox="0 0 33 33" fill="none" xmlns="http://www.w3.org/2000/svg">
<rect x="0.712558" y="0.8483" width="30.682" height="30.682" rx="15.341" stroke="#28C141" stroke-width="1.42707"/>
<path d="M17.047 16.142L15.6303 18.2535L15.174 17.7873C14.8442 17.4513 14.3071 17.4455 13.9723 17.774C13.6371 18.1025 13.6312 18.6402 13.9594 18.9754L15.1467 20.1883C15.3073 20.3526 15.5267 20.4439 15.754 20.4439C15.7797 20.4439 15.8058 20.443 15.832 20.4405C16.0866 20.4165 16.3169 20.2796 16.4596 20.068L18.4582 17.0895C18.7195 16.6996 18.6155 16.1719 18.2259 15.9106C17.8364 15.6476 17.3087 15.7529 17.047 16.142Z" fill="#28C141"/>
<path d="M21.151 8.79131V8.12007C21.151 7.65052 20.7705 7.27051 20.3014 7.27051C19.8323 7.27051 19.4519 7.65052 19.4519 8.12007V8.41648C17.4885 8.08108 15.4799 8.03486 13.5049 8.28591V8.12007C13.5049 7.65052 13.1245 7.27051 12.6553 7.27051C12.1862 7.27051 11.8058 7.65052 11.8058 8.12007V8.58351C11.5953 8.62896 11.3835 8.66846 11.1744 8.7208C9.68561 9.0924 8.53029 10.249 8.15861 11.7373C7.36087 14.929 7.36087 18.3023 8.15861 21.4941C8.53029 22.9825 9.68561 24.139 11.1748 24.5107C12.7706 24.9097 14.4121 25.1089 16.0536 25.1089C17.6951 25.1089 19.3369 24.9097 20.9328 24.5107C22.4216 24.139 23.5769 22.9825 23.9486 21.4941C24.7463 18.3024 24.7463 14.9291 23.9486 11.7373C23.5956 10.3239 22.5319 9.2183 21.151 8.79131ZM11.5863 10.3684C11.7116 10.3372 11.8387 10.315 11.9645 10.2864C12.1172 10.5116 12.3627 10.6688 12.6553 10.6688C13.057 10.6688 13.3779 10.3844 13.4665 10.0096C14.3239 9.88861 15.1882 9.8209 16.0536 9.8209C17.2155 9.8209 18.3768 9.93287 19.5192 10.151C19.6484 10.4554 19.95 10.6688 20.3014 10.6688C20.4951 10.6688 20.665 10.5926 20.8079 10.4836C21.5406 10.7697 22.1061 11.3725 22.3 12.1489C22.3687 12.4237 22.4246 12.7013 22.4804 12.979C18.209 12.6608 13.898 12.6608 9.62665 12.979C9.68247 12.7014 9.73837 12.4238 9.80702 12.1489C10.0266 11.2703 10.7081 10.5883 11.5863 10.3684ZM22.3 21.0825C22.0806 21.9612 21.3991 22.6431 20.5209 22.863C17.598 23.5931 14.5088 23.5931 11.5868 22.863C10.7081 22.6431 10.0266 21.9612 9.80719 21.0825C9.28623 18.9989 9.14402 16.8306 9.36601 14.6981C13.8084 14.3463 18.299 14.3463 22.7414 14.6981C22.9633 16.8306 22.821 18.9989 22.3 21.0825Z" fill="#28C141"/>
</svg>
