<svg width="36" height="36" viewBox="0 0 36 36" fill="none" xmlns="http://www.w3.org/2000/svg">
<path d="M35.127 17.5635C35.127 27.2635 27.2635 35.127 17.5635 35.127C7.86344 35.127 0 27.2635 0 17.5635C0 7.86344 7.86344 0 17.5635 0C27.2635 0 35.127 7.86344 35.127 17.5635Z" fill="#3E173C"/>
<path d="M25.2192 25.2196V23.4182C25.2192 22.4627 24.8396 21.5463 24.1639 20.8707C23.4883 20.195 22.5719 19.8154 21.6164 19.8154H14.4109C13.4554 19.8154 12.539 20.195 11.8633 20.8707C11.1877 21.5463 10.8081 22.4627 10.8081 23.4182V25.2196" stroke="white" stroke-width="1.80138" stroke-linecap="round" stroke-linejoin="round"/>
<path d="M18.0139 16.2124C20.0036 16.2124 21.6167 14.5994 21.6167 12.6096C21.6167 10.6198 20.0036 9.00684 18.0139 9.00684C16.0241 9.00684 14.4111 10.6198 14.4111 12.6096C14.4111 14.5994 16.0241 16.2124 18.0139 16.2124Z" stroke="white" stroke-width="1.80138" stroke-linecap="round" stroke-linejoin="round"/>
</svg>
